<?xml version="1.0" encoding="UTF-8"?>
<svg width="30px" height="30px" viewBox="0 0 30 30" version="1.1" xmlns="http://www.w3.org/2000/svg" xmlns:xlink="http://www.w3.org/1999/xlink">
    <!-- Generator: Sketch 50.2 (55047) - http://www.bohemiancoding.com/sketch -->
    <title>home-icon</title>
    <desc>Created with Sketch.</desc>
    <defs></defs>
    <g id="Page-1" stroke="none" stroke-width="1" fill="none" fill-rule="evenodd">
        <g id="Desktop" transform="translate(-54.000000, -43.000000)" fill="#363636">
            <path d="M69.3576424,43.1491298 C69.2656552,43.0540244 69.1362795,43 68.9997823,43 C68.8638785,43 68.7339094,43.0540244 68.6419221,43.1491298 L54.1275175,58.1785989 C53.9975484,58.3130971 53.9637208,58.5078099 54.0408715,58.6749478 C54.1186155,58.8420858 54.2925012,58.9495718 54.4853777,58.9495718 L57.6550811,58.9495718 L57.6550811,71.8253816 C57.6550811,72.0797463 57.8722897,72.2857143 58.139943,72.2857143 L65.9659827,72.2857143 C66.2342295,72.2857143 66.4514381,72.0797463 66.4514381,71.8253816 L66.4514381,65.1601241 L71.5487199,65.1601241 L71.5487199,71.8253816 C71.5487199,72.0797463 71.7659286,72.2857143 72.0335819,72.2857143 L79.8596216,72.2857143 C80.1278683,72.2857143 80.345077,72.0797463 80.345077,71.8253816 L80.345077,58.9495718 L83.5147803,58.9495718 C83.7070634,58.9495718 83.8815425,58.8420858 83.9586931,58.6749478 C84.0364372,58.5078099 84.0026096,58.3130971 83.8726405,58.1785989 L69.3576424,43.1491298 Z" id="home-icon"></path>
        </g>
    </g>
</svg>