<?xml version="1.0" encoding="UTF-8"?>
<svg width="24px" height="12px" viewBox="0 0 24 12" version="1.1" xmlns="http://www.w3.org/2000/svg" xmlns:xlink="http://www.w3.org/1999/xlink">
    <!-- Generator: Sketch 55.1 (78136) - https://sketchapp.com -->
    <title>Link</title>
    <desc></desc>
    <defs>
        <path d="M7.84104,21.6 C6.38784,21.6 5.01864,21.0336 3.99144,20.0052 C1.86864,17.8836 1.86864,14.4312 3.99144,12.3084 L6.35064,9.9516 C6.81864,9.4824 7.57824,9.4824 8.04744,9.9516 C8.51544,10.4208 8.51544,11.1804 8.04744,11.6484 L5.68824,14.0052 C4.50264,15.192 4.50264,17.1228 5.68824,18.3084 C6.84144,19.4592 8.84544,19.458 9.99264,18.3084 L12.35184,15.9516 C12.81984,15.4824 13.57944,15.4824 14.04984,15.9516 C14.51784,16.4208 14.51784,17.1804 14.04984,17.6484 L11.69064,20.0052 C10.66464,21.0336 9.29544,21.6 7.84104,21.6 Z M16.8012,14.4 C16.494,14.4 16.1868,14.2824 15.9528,14.0484 C15.4836,13.5792 15.4836,12.8196 15.9528,12.3516 L18.312,9.9948 C19.4976,8.808 19.4976,6.8772 18.312,5.6916 C17.1588,4.5408 15.1548,4.5432 14.0076,5.6916 L11.6484,8.0484 C11.1792,8.5176 10.4208,8.5176 9.9504,8.0484 C9.4812,7.5792 9.4812,6.8196 9.9504,6.3516 L12.3096,3.9948 C13.3356,2.9664 14.7048,2.4 16.1592,2.4 C17.6124,2.4 18.9804,2.9664 20.0088,3.9948 C22.1304,6.1164 22.1304,9.5688 20.0088,11.6916 L17.6496,14.0484 C17.4156,14.2824 17.1084,14.4 16.8012,14.4 Z M9.5988,15.6 C9.2916,15.6 8.9844,15.4824 8.7504,15.2484 C8.2812,14.7792 8.2812,14.0208 8.7504,13.5516 L13.5516,8.7516 C14.022,8.2824 14.7804,8.2824 15.2496,8.7516 C15.7188,9.2208 15.7188,9.9792 15.2496,10.4484 L10.4484,15.2484 C10.2144,15.4824 9.906,15.6 9.5988,15.6 Z" id="path-1"></path>
    </defs>
    <g id="Page-1" stroke="none" stroke-width="1" fill="none" fill-rule="evenodd">
        <g id="Desktop-HD" transform="translate(-245.000000, -784.000000)">
            <g id="Polaris-icon/Minor/Mono/Link" transform="translate(257.000000, 790.000000) rotate(-315.000000) translate(-257.000000, -790.000000) translate(245.000000, 778.000000)">
                <mask id="mask-2" fill="white">
                    <use xlink:href="#path-1"></use>
                </mask>
                <use id="Icon" fill="#31373D" fill-rule="evenodd" xlink:href="#path-1"></use>
                <g id="Color/InkLighter" mask="url(#mask-2)"></g>
            </g>
        </g>
    </g>
</svg>
