<?xml version="1.0" encoding="UTF-8"?>
<svg width="25px" height="26px" viewBox="0 0 25 26" version="1.1" xmlns="http://www.w3.org/2000/svg" xmlns:xlink="http://www.w3.org/1999/xlink">
    <!-- Generator: Sketch 50.2 (55047) - http://www.bohemiancoding.com/sketch -->
    <title>linkedin</title>
    <desc>Created with Sketch.</desc>
    <defs></defs>
    <g id="Page-1" stroke="none" stroke-width="1" fill="none" fill-rule="evenodd">
        <g id="Desktop-Copy" transform="translate(-48.000000, -632.000000)" fill="#000000">
            <g id="11-linkedin" transform="translate(48.000000, 632.000000)">
                <g id="Group">
                    <path d="M23.1325,0.3335 L2.0725,0.3335 C1.0645,0.3335 0.247,1.1315 0.247,2.115 L0.247,23.4215 C0.247,24.4045 1.0645,25.2025 2.0725,25.2025 L23.1325,25.2025 C24.142,25.2025 24.9595,24.404 24.9595,23.4215 L24.9595,2.115 C24.9595,1.131 24.1415,0.3335 23.1325,0.3335 L23.1325,0.3335 Z M7.7375,21.152 L4.005,21.152 L4.005,9.9225 L7.7375,9.9225 L7.7375,21.152 L7.7375,21.152 Z M5.8715,8.3885 L5.8465,8.3885 C4.5945,8.3885 3.7845,7.526 3.7845,6.4485 C3.7845,5.347 4.6195,4.5085 5.896,4.5085 C7.173,4.5085 7.9585,5.347 7.9835,6.4485 C7.9835,7.526 7.1725,8.3885 5.8715,8.3885 L5.8715,8.3885 Z M21.197,21.152 L17.4645,21.152 L17.4645,15.143 C17.4645,13.634 16.9245,12.604 15.574,12.604 C14.543,12.604 13.929,13.2985 13.6585,13.9695 C13.56,14.209 13.536,14.544 13.536,14.88 L13.536,21.1515 L9.8035,21.1515 C9.8035,21.1515 9.8525,10.9745 9.8035,9.922 L13.536,9.922 L13.536,11.5115 C14.032,10.7465 14.919,9.657 16.9005,9.657 C19.356,9.657 21.1975,11.2625 21.1975,14.712 L21.1975,21.152 L21.197,21.152 Z" id="linkedin"></path>
                </g>
            </g>
        </g>
    </g>
</svg>